<mxfile host="65bd71144e">
    <diagram id="sXCVMBynrOZK5YRpDZ3y" name="Page-1">
        <mxGraphModel dx="1481" dy="574" grid="0" gridSize="10" guides="1" tooltips="1" connect="1" arrows="1" fold="1" page="0" pageScale="1" pageWidth="850" pageHeight="1100" math="0" shadow="0">
            <root>
                <mxCell id="0"/>
                <mxCell id="1" parent="0"/>
                <mxCell id="4" style="edgeStyle=none;curved=1;rounded=0;orthogonalLoop=1;jettySize=auto;html=1;endArrow=open;startSize=14;endSize=14;sourcePerimeterSpacing=8;targetPerimeterSpacing=8;" parent="1" source="2" target="3" edge="1">
                    <mxGeometry relative="1" as="geometry"/>
                </mxCell>
                <mxCell id="6" style="edgeStyle=none;curved=1;rounded=0;orthogonalLoop=1;jettySize=auto;html=1;endArrow=open;startSize=14;endSize=14;sourcePerimeterSpacing=8;targetPerimeterSpacing=8;" parent="1" source="2" target="5" edge="1">
                    <mxGeometry relative="1" as="geometry"/>
                </mxCell>
                <mxCell id="8" style="edgeStyle=none;curved=1;rounded=0;orthogonalLoop=1;jettySize=auto;html=1;endArrow=open;startSize=14;endSize=14;sourcePerimeterSpacing=8;targetPerimeterSpacing=8;" parent="1" source="2" target="7" edge="1">
                    <mxGeometry relative="1" as="geometry">
                        <mxPoint x="231.3897435897436" y="241" as="targetPoint"/>
                    </mxGeometry>
                </mxCell>
                <mxCell id="10" value="" style="edgeStyle=none;curved=1;rounded=0;orthogonalLoop=1;jettySize=auto;html=1;endArrow=open;startSize=14;endSize=14;sourcePerimeterSpacing=8;targetPerimeterSpacing=8;" parent="1" source="2" target="9" edge="1">
                    <mxGeometry relative="1" as="geometry"/>
                </mxCell>
                <mxCell id="2" value="Tela inicial" style="rounded=0;whiteSpace=wrap;html=1;" parent="1" vertex="1">
                    <mxGeometry x="153" y="44" width="160" height="80" as="geometry"/>
                </mxCell>
                <mxCell id="3" value="Login/Cadastro" style="whiteSpace=wrap;html=1;" parent="1" vertex="1">
                    <mxGeometry x="472" y="54" width="120" height="60" as="geometry"/>
                </mxCell>
                <mxCell id="5" value="Compatibilidade PC" style="whiteSpace=wrap;html=1;" parent="1" vertex="1">
                    <mxGeometry x="462" y="227" width="120" height="60" as="geometry"/>
                </mxCell>
                <mxCell id="7" value="Produtos" style="whiteSpace=wrap;html=1;" parent="1" vertex="1">
                    <mxGeometry x="173" y="241" width="120" height="60" as="geometry"/>
                </mxCell>
                <mxCell id="9" value="Melhores peÃ§as?" style="rounded=0;whiteSpace=wrap;html=1;" parent="1" vertex="1">
                    <mxGeometry x="-127" y="44" width="160" height="80" as="geometry"/>
                </mxCell>
            </root>
        </mxGraphModel>
    </diagram>
</mxfile>